<?xml version="1.0" standalone="no"?>
<!DOCTYPE svg PUBLIC "-//W3C//DTD SVG 20010904//EN"
 "http://www.w3.org/TR/2001/REC-SVG-20010904/DTD/svg10.dtd">
<svg version="1.0" xmlns="http://www.w3.org/2000/svg"
 width="2160.000000pt" height="2160.000000pt" viewBox="0 0 2160.000000 2160.000000"
 preserveAspectRatio="xMidYMid meet">

<g transform="translate(0.000000,2160.000000) scale(0.100000,-0.100000)"
fill="#000000" stroke="none">
<path d="M15835 12510 c10 -11 22 -20 26 -20 5 0 1 9 -8 20 -10 11 -22 20 -27
20 -5 0 -1 -9 9 -20z"/>
<path d="M15385 12490 c-4 -6 7 -10 25 -10 18 0 29 4 25 10 -3 6 -15 10 -25
10 -10 0 -22 -4 -25 -10z"/>
<path d="M15485 12490 c-3 -5 1 -10 9 -10 9 0 16 5 16 10 0 6 -4 10 -9 10 -6
0 -13 -4 -16 -10z"/>
<path d="M15825 12480 c3 -5 8 -10 11 -10 2 0 4 5 4 10 0 6 -5 10 -11 10 -5 0
-7 -4 -4 -10z"/>
<path d="M15340 12455 c0 -8 5 -15 10 -15 6 0 10 7 10 15 0 8 -4 15 -10 15 -5
0 -10 -7 -10 -15z"/>
<path d="M15570 12420 c0 -5 -20 -10 -44 -10 -25 0 -48 -5 -51 -11 -4 -6 -14
-8 -22 -5 -9 4 -40 -1 -70 -11 -42 -13 -53 -21 -50 -34 4 -14 -7 -20 -59 -30
-58 -11 -64 -15 -64 -37 0 -26 -33 -62 -57 -62 -7 0 -13 -6 -13 -14 0 -16 -45
-66 -60 -66 -5 0 -10 -6 -10 -14 0 -7 -7 -19 -15 -26 -9 -7 -14 -19 -11 -26 3
-8 -6 -26 -19 -40 -14 -15 -25 -30 -25 -35 0 -4 -9 -10 -19 -14 -11 -3 -22
-16 -24 -28 -3 -18 -5 -17 -6 6 -1 37 -21 25 -21 -14 0 -22 -6 -32 -25 -39
-18 -7 -25 -17 -25 -35 0 -14 -4 -25 -8 -25 -5 0 -16 -18 -26 -40 -10 -22 -24
-40 -32 -40 -13 0 -54 -34 -54 -45 0 -3 7 -5 16 -5 11 0 14 -5 10 -16 -3 -9
-6 -17 -6 -19 0 -2 -14 0 -31 5 -25 7 -30 6 -25 -5 3 -9 -1 -15 -9 -15 -8 0
-15 -9 -15 -20 0 -27 -16 -25 -25 3 -7 21 -8 21 -15 -8 l-8 -30 -1 28 c-1 37
-21 35 -21 -3 0 -17 7 -33 18 -39 15 -9 15 -10 -5 -11 -13 0 -23 -4 -23 -10 0
-5 -7 -10 -15 -10 -8 0 -15 -4 -15 -10 0 -5 -9 -10 -20 -10 -11 0 -20 -7 -20
-15 0 -12 -4 -14 -17 -7 -11 7 -21 5 -31 -4 -7 -8 -24 -14 -37 -14 -12 0 -25
-7 -29 -15 -3 -10 -19 -15 -46 -15 -29 0 -40 -4 -40 -15 0 -8 5 -15 11 -15 5
0 7 -4 4 -10 -3 -5 -24 -10 -46 -10 -21 0 -39 -4 -39 -10 0 -5 -11 -10 -24
-10 -35 0 -56 -10 -56 -26 0 -8 -16 -16 -40 -20 -22 -4 -40 -10 -40 -15 0 -5
-9 -9 -21 -9 -20 0 -49 -21 -49 -37 0 -9 -48 -27 -117 -45 -24 -6 -43 -15 -43
-19 0 -5 -19 -13 -42 -20 -23 -6 -47 -17 -53 -25 -6 -8 -22 -15 -35 -15 -47
-1 -70 -9 -70 -24 0 -10 -10 -15 -30 -15 -16 0 -33 -7 -37 -15 -6 -9 -26 -16
-53 -17 -34 -1 -49 -7 -63 -25 -10 -13 -27 -23 -37 -23 -10 0 -25 -7 -34 -15
-8 -8 -31 -15 -50 -15 -20 0 -36 -4 -36 -10 0 -5 -7 -10 -15 -10 -8 0 -15 5
-15 10 0 6 -9 10 -20 10 -13 0 -20 -7 -20 -20 0 -15 -9 -21 -40 -26 -24 -4
-40 -12 -40 -20 0 -8 -9 -14 -20 -14 -10 0 -24 -8 -30 -17 -8 -13 -13 -14 -16
-5 -8 18 -94 16 -94 -3 0 -34 -33 -55 -87 -55 -52 0 -53 0 -53 -30 0 -28 -2
-30 -40 -30 -22 0 -40 -4 -40 -10 0 -6 -32 -10 -75 -10 -41 0 -75 -4 -75 -9 0
-4 -21 -14 -47 -21 -65 -16 -103 -31 -103 -39 0 -4 -18 -6 -40 -5 -29 1 -40
-2 -40 -12 0 -8 6 -14 13 -14 6 0 3 -6 -8 -12 -11 -7 -26 -18 -33 -25 -7 -7
-19 -13 -25 -14 -60 -4 -81 -2 -84 9 -3 8 7 12 31 12 23 0 36 5 36 13 0 7 10
19 21 27 35 24 49 40 49 56 0 8 -3 14 -6 14 -11 0 -74 -68 -74 -79 0 -6 -16
-11 -35 -11 -28 0 -35 -4 -35 -20 0 -15 -7 -20 -29 -20 -51 0 -91 -12 -91 -27
0 -8 -9 -17 -20 -20 -11 -3 -20 -12 -20 -19 0 -9 -12 -14 -34 -14 -35 0 -48
-9 -76 -49 -11 -16 -25 -21 -62 -21 -35 0 -54 -6 -68 -20 -11 -11 -20 -23 -20
-26 0 -18 -34 -34 -72 -34 -51 0 -71 -11 -62 -33 5 -14 0 -17 -30 -17 -20 0
-36 -4 -36 -10 0 -5 -18 -10 -40 -10 -33 0 -40 -3 -40 -20 0 -18 -7 -20 -75
-20 -68 0 -75 -2 -75 -20 0 -17 -7 -20 -40 -20 -29 0 -40 -4 -40 -15 0 -10
-11 -15 -35 -15 -29 0 -35 -4 -35 -22 0 -17 3 -19 12 -10 7 7 27 12 45 12 23
0 33 5 33 15 0 11 11 15 40 15 33 0 40 3 40 20 0 18 7 20 75 20 68 0 75 2 75
20 0 17 7 20 40 20 22 0 40 5 40 10 0 6 16 10 35 10 32 0 35 2 35 30 0 27 3
30 30 30 17 0 30 -4 30 -10 0 -5 10 -10 23 -10 18 0 19 2 7 10 -13 8 -12 10 3
10 10 0 21 8 24 17 11 29 51 63 73 63 11 0 20 -4 20 -10 0 -5 10 -10 23 -10
18 0 19 2 7 10 -13 9 -13 10 1 10 33 0 69 25 69 48 0 19 5 22 40 22 22 0 40 4
40 9 0 5 9 11 20 14 11 3 20 12 20 21 0 9 7 16 15 16 8 0 15 5 15 10 0 6 16
10 35 10 31 0 35 -3 35 -25 0 -18 -5 -25 -20 -25 -11 0 -20 -4 -20 -10 0 -5
-10 -10 -23 -10 -12 0 -30 -9 -39 -19 -11 -13 -24 -18 -37 -14 -15 4 -21 1
-21 -10 0 -21 -31 -37 -58 -30 -15 4 -22 1 -22 -9 0 -38 -57 -70 -122 -69 -21
0 -28 -5 -28 -19 0 -14 -7 -20 -24 -20 -15 0 -26 -7 -29 -20 -4 -17 -14 -20
-55 -20 -44 0 -51 -3 -54 -22 -2 -15 -13 -24 -35 -30 -18 -5 -33 -13 -33 -18
0 -6 -18 -10 -40 -10 -22 0 -40 -4 -40 -9 0 -5 -16 -12 -35 -15 -25 -5 -35
-12 -35 -26 0 -14 -10 -20 -40 -25 -22 -4 -40 -11 -40 -16 0 -5 -7 -9 -15 -9
-9 0 -15 -9 -15 -24 0 -19 -4 -22 -25 -18 -18 3 -25 0 -25 -11 0 -8 6 -18 13
-20 10 -4 10 -6 0 -6 -9 -1 -13 -20 -13 -62 0 -61 0 -61 26 -56 20 3 28 0 31
-14 4 -13 14 -19 34 -19 25 0 29 -4 29 -26 0 -17 6 -28 20 -31 11 -3 20 -9 20
-13 0 -5 9 -12 20 -15 28 -9 25 -34 -7 -46 -42 -16 -14 -30 61 -31 36 0 64 -3
62 -7 -3 -4 13 -6 35 -5 21 1 41 -2 44 -6 3 -4 57 -8 121 -9 64 -1 120 -4 125
-7 5 -2 21 -7 36 -9 160 -25 231 -34 246 -29 10 3 23 1 30 -4 7 -6 68 -17 137
-26 220 -28 763 -139 980 -201 30 -8 82 -21 115 -29 33 -7 101 -26 150 -41 50
-15 110 -33 135 -40 124 -37 598 -205 684 -243 27 -12 50 -21 50 -20 1 2 18
30 38 63 80 133 389 735 530 1030 149 315 290 640 357 825 15 41 30 80 33 85
26 41 78 196 125 365 8 30 18 60 22 65 5 6 13 28 19 50 6 22 18 59 26 82 9 23
18 61 21 84 3 23 10 47 15 54 5 6 7 23 5 37 -3 15 -1 30 5 33 5 3 10 17 10 30
0 13 7 30 15 38 7 8 17 28 20 43 5 22 4 25 -4 14 -9 -13 -11 -12 -11 6 0 11 4
24 10 30 5 5 10 24 12 43 1 18 7 35 13 37 5 2 9 27 8 54 -1 27 2 52 7 55 6 4
7 23 4 44 -4 25 -2 41 5 46 9 5 9 10 1 20 -8 9 -8 15 0 20 11 7 4 25 -10 25
-5 0 -10 -26 -12 -57 -3 -49 -6 -58 -23 -60 -11 -2 -14 0 -7 3 23 11 13 34
-15 35 -24 2 -25 2 -5 6 26 5 30 23 4 23 -18 0 -42 37 -42 64 0 8 -8 16 -17
19 -10 4 -36 13 -58 21 -46 18 -75 20 -75 6z m-640 -543 c0 -13 -8 -32 -18
-43 -10 -11 -22 -31 -25 -45 -4 -17 -18 -30 -42 -39 -19 -7 -35 -18 -35 -24 0
-5 -2 -7 -5 -4 -9 8 6 38 18 38 15 0 57 49 57 67 0 7 5 13 10 13 6 0 10 8 10
18 0 15 17 42 27 42 2 0 3 -10 3 -23z"/>
<path d="M15290 12410 c0 -5 7 -10 15 -10 8 0 15 5 15 10 0 6 -7 10 -15 10 -8
0 -15 -4 -15 -10z"/>
<path d="M15826 12385 c-16 -12 -17 -15 -4 -15 9 0 18 7 22 15 7 18 6 18 -18
0z"/>
<path d="M15190 12345 c0 -8 5 -15 10 -15 6 0 10 7 10 15 0 8 -4 15 -10 15 -5
0 -10 -7 -10 -15z"/>
<path d="M15100 12230 c0 -5 7 -10 15 -10 8 0 15 5 15 10 0 6 -7 10 -15 10 -8
0 -15 -4 -15 -10z"/>
<path d="M9020 11225 c0 -16 -9 -26 -32 -36 -18 -7 -39 -19 -46 -26 -7 -7 -19
-10 -27 -7 -9 4 -15 -4 -18 -23 l-4 -28 -2 28 c-1 35 -30 37 -33 2 -5 -76 -4
-91 6 -98 6 -5 0 -5 -13 -2 -16 5 -21 4 -17 -4 4 -6 10 -24 12 -39 7 -37 63
-203 114 -337 87 -230 349 -722 480 -902 19 -27 33 -52 32 -56 -1 -4 5 -10 13
-13 8 -4 15 -10 15 -16 0 -5 -5 -6 -12 -2 -7 4 -8 3 -4 -4 3 -6 21 -9 39 -7
17 3 62 8 100 11 37 4 67 11 67 16 0 5 8 7 18 4 10 -4 88 3 173 15 85 11 174
22 199 25 91 7 121 11 128 19 4 5 1 5 -6 1 -10 -6 -11 -1 -6 18 5 20 2 26 -11
26 -13 0 -16 6 -11 25 5 18 1 32 -13 46 -25 27 -100 231 -151 409 -60 208 -92
357 -111 515 -12 98 -27 162 -28 122 -1 -10 -5 -16 -10 -12 -5 3 -13 0 -16 -6
-4 -6 2 -13 15 -16 16 -4 18 -8 9 -14 -8 -5 -16 -3 -20 3 -5 8 -73 11 -233 9
-156 -2 -226 1 -226 8 0 7 -18 10 -45 9 -25 0 -45 -5 -45 -10 0 -16 -51 -8
-72 12 -12 11 -16 20 -10 20 7 0 12 5 12 11 0 7 -9 9 -21 6 -34 -9 -67 10 -87
50 -17 35 -57 183 -64 242 -4 32 -38 38 -38 6z m6 -85 c8 0 14 -4 14 -10 0 -5
-6 -10 -14 -10 -15 0 -27 22 -25 48 1 10 4 8 6 -5 2 -13 11 -23 19 -23z m141
-242 c-3 -8 -6 -5 -6 6 -1 11 2 17 5 13 3 -3 4 -12 1 -19z"/>
<path d="M8975 11210 c-3 -5 1 -10 9 -10 9 0 16 5 16 10 0 6 -4 10 -9 10 -6 0
-13 -4 -16 -10z"/>
<path d="M8812 11169 c-10 -15 -9 -29 4 -69 18 -56 25 -63 23 -22 -1 15 2 41
6 58 9 39 -14 63 -33 33z m28 -25 c0 -8 -4 -14 -10 -14 -5 0 -10 9 -10 21 0
11 5 17 10 14 6 -3 10 -13 10 -21z"/>
<path d="M9276 10941 c-3 -5 31 -9 75 -10 53 -1 78 2 74 9 -8 12 -142 14 -149
1z"/>
<path d="M9480 10940 c0 -5 11 -10 25 -10 14 0 25 5 25 10 0 6 -11 10 -25 10
-14 0 -25 -4 -25 -10z"/>
<path d="M9550 10939 c0 -5 5 -7 10 -4 6 3 10 8 10 11 0 2 -4 4 -10 4 -5 0
-10 -5 -10 -11z"/>
<path d="M9585 10940 c-3 -5 -2 -10 4 -10 5 0 13 5 16 10 3 6 2 10 -4 10 -5 0
-13 -4 -16 -10z"/>
<path d="M9690 10920 c0 -5 14 -10 30 -10 17 0 30 5 30 10 0 6 -13 10 -30 10
-16 0 -30 -4 -30 -10z"/>
<path d="M12660 10862 c-21 -23 -21 -42 0 -42 11 0 19 9 22 25 6 31 -2 38 -22
17z"/>
<path d="M12600 10841 c0 -13 -9 -25 -22 -31 l-23 -9 23 0 c12 -1 22 4 22 9 0
6 7 10 16 10 9 0 14 7 12 17 -5 25 -28 28 -28 4z"/>
<path d="M12450 10760 c0 -17 7 -20 40 -20 33 0 40 3 40 20 0 11 -7 20 -16 20
-8 0 -12 -4 -9 -10 3 -5 1 -10 -4 -10 -6 0 -11 5 -11 10 0 6 -9 10 -20 10 -13
0 -20 -7 -20 -20z"/>
<path d="M11255 10170 c3 -5 15 -10 26 -10 10 0 19 5 19 10 0 6 -12 10 -26 10
-14 0 -23 -4 -19 -10z"/>
<path d="M11135 9769 c-49 -5 -42 -6 43 -6 56 -1 102 3 102 7 0 9 -53 8 -145
-1z"/>
<path d="M10783 9763 c15 -2 37 -2 50 0 12 2 0 4 -28 4 -27 0 -38 -2 -22 -4z"/>
<path d="M12288 6873 c6 -2 18 -2 25 0 6 3 1 5 -13 5 -14 0 -19 -2 -12 -5z"/>
<path d="M12475 6840 c-3 -5 1 -10 10 -10 9 0 13 5 10 10 -3 6 -8 10 -10 10
-2 0 -7 -4 -10 -10z"/>
<path d="M12666 6802 c-3 -4 4 -9 15 -9 23 -2 25 3 4 10 -8 4 -16 3 -19 -1z"/>
<path d="M12806 6764 c-4 -10 -1 -14 6 -12 15 5 23 28 10 28 -5 0 -13 -7 -16
-16z"/>
<path d="M12570 6640 c0 -5 7 -10 15 -10 8 0 15 5 15 10 0 6 -7 10 -15 10 -8
0 -15 -4 -15 -10z"/>
<path d="M12200 6629 c0 -5 5 -7 10 -4 6 3 10 8 10 11 0 2 -4 4 -10 4 -5 0
-10 -5 -10 -11z"/>
<path d="M12357 6583 c-4 -3 -45 -5 -92 -5 -47 0 -85 -4 -85 -9 0 -5 9 -9 21
-9 11 0 17 -4 14 -10 -3 -5 -27 -10 -52 -10 -50 0 -113 -18 -113 -33 0 -5 -19
-7 -42 -5 -27 2 -43 -1 -45 -9 -3 -9 7 -13 31 -13 29 0 36 -4 36 -20 0 -15 -9
-22 -30 -26 -16 -4 -30 -13 -30 -21 0 -7 -7 -16 -15 -19 -8 -4 -15 -13 -15
-21 0 -12 8 -14 33 -10 40 6 52 0 53 -30 0 -17 -5 -23 -22 -23 -16 0 -25 -9
-33 -31 -6 -17 -8 -35 -5 -40 3 -5 -2 -6 -11 -3 -16 6 -45 -11 -45 -27 0 -5 7
-9 15 -9 9 0 12 -6 9 -15 -7 -18 28 -22 101 -12 29 5 42 -5 19 -15 -14 -6 -13
-7 8 -3 15 3 30 1 33 -5 3 -5 11 -10 16 -10 6 0 8 4 4 9 -3 5 -1 12 5 16 5 3
10 -2 10 -11 0 -10 3 -14 6 -11 4 3 15 2 24 -3 10 -5 41 -10 69 -11 28 -1 51
-5 51 -9 0 -10 80 -24 184 -34 17 -1 32 -8 34 -14 2 -7 23 -12 48 -12 31 0 44
-4 44 -14 0 -8 7 -16 15 -20 11 -4 15 1 15 19 0 23 13 31 42 26 4 0 5 6 2 14
-4 10 0 15 12 15 12 0 15 3 7 8 -17 11 11 47 29 36 7 -4 10 -4 6 0 -9 11 47
102 61 98 6 -1 11 5 11 13 0 27 30 75 46 75 11 0 14 5 10 16 -7 19 12 47 25
38 5 -3 9 -2 8 3 -1 4 3 21 9 36 7 16 12 32 12 37 0 5 8 13 17 19 10 5 15 13
11 17 -5 4 -3 13 3 21 6 7 8 13 3 13 -5 0 -2 5 6 10 10 7 11 10 2 10 -7 0 -18
-11 -24 -25 -9 -21 -18 -25 -54 -25 -29 0 -44 5 -48 16 -4 11 -14 15 -31 12
-14 -3 -25 -1 -25 3 0 5 15 9 34 9 24 0 36 -5 39 -17 3 -10 5 -3 6 15 0 17 -3
32 -9 32 -5 0 -10 -4 -10 -10 0 -5 -13 -10 -30 -10 -23 0 -30 4 -30 20 0 11
-5 20 -11 20 -6 0 -8 -8 -4 -19 6 -19 2 -19 -87 -14 -51 3 -96 11 -100 16 -7
11 -192 20 -201 10z m238 -493 c3 -5 1 -10 -4 -10 -6 0 -11 5 -11 10 0 6 2 10
4 10 3 0 8 -4 11 -10z"/>
<path d="M11810 6490 c0 -5 7 -10 15 -10 8 0 15 5 15 10 0 6 -7 10 -15 10 -8
0 -15 -4 -15 -10z"/>
<path d="M11970 6330 c0 -5 5 -10 10 -10 6 0 10 5 10 10 0 6 -4 10 -10 10 -5
0 -10 -4 -10 -10z"/>
<path d="M11640 6250 c0 -5 5 -10 11 -10 5 0 7 5 4 10 -3 6 -8 10 -11 10 -2 0
-4 -4 -4 -10z"/>
<path d="M11810 6230 c-19 -12 -7 -22 21 -18 19 2 20 5 8 15 -9 7 -20 9 -29 3z"/>
<path d="M11866 6211 c-3 -5 1 -11 9 -15 8 -3 15 -1 15 4 0 13 -18 22 -24 11z"/>
<path d="M10645 5313 c-60 -7 -162 -16 -225 -19 -63 -3 -120 -10 -127 -15 -6
-6 -23 -7 -37 -3 -19 4 -26 3 -24 -6 4 -17 -56 -30 -91 -20 -14 4 -35 4 -46
-1 -11 -4 -14 -8 -7 -8 17 -1 15 -21 -3 -21 -8 0 -15 -5 -15 -11 0 -5 -5 -7
-12 -3 -6 4 -8 3 -5 -4 4 -6 24 -8 48 -5 35 5 44 2 65 -21 14 -14 20 -26 15
-26 -5 0 -11 -8 -14 -17 -3 -14 -6 -11 -11 10 -11 36 -23 34 -28 -3 -3 -16 -2
-28 0 -25 7 6 62 -24 62 -35 0 -5 -5 -12 -10 -15 -6 -4 -10 -16 -8 -27 2 -12
-2 -23 -9 -25 -7 -3 -10 5 -9 21 2 14 0 26 -4 26 -11 0 -21 -30 -15 -40 3 -5
-3 -8 -14 -7 -17 1 -18 3 -4 24 8 12 12 27 8 33 -9 14 -45 13 -45 -3 0 -7 -9
-18 -20 -25 -11 -7 -20 -17 -20 -23 0 -6 7 -3 16 5 19 20 24 20 24 0 0 -9 -5
-12 -12 -8 -9 6 -9 3 0 -9 8 -9 11 -21 8 -26 -4 -5 2 -16 12 -23 18 -12 46
-55 47 -71 0 -4 17 -25 38 -47 20 -22 35 -40 32 -40 -3 0 2 -12 12 -27 20 -32
175 -245 183 -253 3 -3 18 -24 34 -48 16 -23 39 -53 52 -67 13 -14 21 -25 18
-25 -4 0 72 -106 86 -120 3 -3 10 -13 15 -22 26 -44 315 -418 351 -455 l41
-43 35 53 c20 29 60 82 90 117 30 36 67 83 81 105 15 22 56 78 92 125 36 47
90 119 120 160 30 41 93 127 140 190 47 63 101 138 120 165 47 68 177 251 214
301 17 23 31 46 31 52 0 6 14 26 30 44 17 18 30 41 30 52 0 11 7 27 16 37 26
28 11 66 -28 74 -18 4 -41 14 -50 22 -9 8 -30 16 -46 18 -16 1 -34 5 -39 8 -6
4 -39 9 -72 12 -34 2 -65 7 -70 9 -5 3 -37 6 -72 7 -35 1 -134 9 -219 19 -197
23 -595 24 -755 3z"/>
<path d="M12016 5201 c-3 -5 1 -11 9 -14 9 -4 12 -1 8 9 -6 16 -10 17 -17 5z"/>
<path d="M10050 5093 c0 -6 -3 -20 -6 -30 -7 -17 -6 -17 12 -1 14 14 16 21 6
30 -8 8 -12 9 -12 1z"/>
</g>
</svg>
